<svg width="40" height="45" viewBox="0 0 40 45" fill="none" xmlns="http://www.w3.org/2000/svg">
<path d="M39.6775 31.1612C39.6775 29.4986 38.3314 28.1521 36.6696 28.1521H3.33044C1.66946 28.1521 0.323303 29.4986 0.323303 31.1612V40.858C0.323303 42.5205 1.66946 43.867 3.33044 43.867H36.6696C38.3314 43.867 39.6775 42.5205 39.6775 40.858V31.1612Z" fill="#0082F5"/>
<path d="M3.33042 28.4742C1.84972 28.4742 0.645787 29.6789 0.645787 31.1612V40.858C0.645787 42.3391 1.84972 43.5445 3.33042 43.5445H36.6696C38.1503 43.5445 39.3554 42.3391 39.3554 40.858V31.1612C39.3554 29.6789 38.1503 28.4742 36.6696 28.4742H3.33042ZM36.6696 44.1892H3.33042C1.49377 44.1892 0 42.6954 0 40.858V31.1612C0 29.3237 1.49377 27.8296 3.33042 27.8296H36.6696C38.5062 27.8296 40 29.3237 40 31.1612V40.858C40 42.6954 38.5062 44.1892 36.6696 44.1892Z" fill="#0082F5"/>
<path d="M39.6775 25.6136C39.6775 23.951 38.3314 22.6037 36.6696 22.6037H3.33044C1.66946 22.6037 0.323303 23.951 0.323303 25.6136V35.3092C0.323303 36.9717 1.66946 38.319 3.33044 38.319H36.6696C38.3314 38.319 39.6775 36.9717 39.6775 35.3092V25.6136Z" fill="#E5F7FD"/>
<path d="M3.33042 22.9262C1.84972 22.9262 0.645787 24.1317 0.645787 25.6135V35.3092C0.645787 36.7911 1.84972 37.9965 3.33042 37.9965H36.6696C38.1503 37.9965 39.3554 36.7911 39.3554 35.3092V25.6135C39.3554 24.1317 38.1503 22.9262 36.6696 22.9262H3.33042ZM36.6696 38.6412H3.33042C1.49377 38.6412 0 37.1466 0 35.3092V25.6135C0 23.7761 1.49377 22.2808 3.33042 22.2808H36.6696C38.5062 22.2808 40 23.7761 40 25.6135V35.3092C40 37.1466 38.5062 38.6412 36.6696 38.6412Z" fill="#0082F5"/>
<path d="M31.7366 34.2548C30.5926 34.2548 29.6613 33.3238 29.6613 32.1779V28.8652C29.6613 27.7201 30.5926 26.7887 31.7366 26.7887H35.0486C36.1933 26.7887 37.1239 27.7201 37.1239 28.8652V32.1779C37.1239 33.3238 36.1933 34.2548 35.0486 34.2548H31.7366Z" fill="#E5F7FD"/>
<path d="M31.7366 27.1108C30.7706 27.1108 29.9838 27.8973 29.9838 28.8652V32.1779C29.9838 33.1458 30.7706 33.9327 31.7366 33.9327H35.0486C36.0146 33.9327 36.8022 33.1458 36.8022 32.1779V28.8652C36.8022 27.8973 36.0146 27.1108 35.0486 27.1108H31.7366ZM35.0486 34.5777H31.7366C30.4147 34.5777 29.3387 33.501 29.3387 32.1779V28.8652C29.3387 27.5421 30.4147 26.4662 31.7366 26.4662H35.0486C36.3713 26.4662 37.4472 27.5421 37.4472 28.8652V32.1779C37.4472 33.501 36.3713 34.5777 35.0486 34.5777Z" fill="#0082F5"/>
<path d="M36.0768 28.8652C36.0768 28.2978 35.6163 27.8373 35.0486 27.8373H31.7366C31.1696 27.8373 30.7087 28.2978 30.7087 28.8652V32.1779C30.7087 32.746 31.1696 33.2065 31.7366 33.2065H35.0486C35.6163 33.2065 36.0768 32.746 36.0768 32.1779V28.8652Z" fill="#0082F5"/>
<path d="M31.7366 28.1598C31.3472 28.1598 31.0313 28.4758 31.0313 28.8651V32.1779C31.0313 32.5673 31.3472 32.8836 31.7366 32.8836H35.0486C35.438 32.8836 35.754 32.5673 35.754 32.1779V28.8651C35.754 28.4758 35.438 28.1598 35.0486 28.1598H31.7366ZM35.0486 33.5294H31.7366C30.9928 33.5294 30.3859 32.9228 30.3859 32.1779V28.8651C30.3859 28.1202 30.9928 27.5144 31.7366 27.5144H35.0486C35.7932 27.5144 36.3986 28.1202 36.3986 28.8651V32.1779C36.3986 32.9228 35.7932 33.5294 35.0486 33.5294Z" fill="#0082F5"/>
<path d="M36.0768 27.2007C36.0768 26.6326 35.6163 26.1729 35.0486 26.1729H31.7366C31.1696 26.1729 30.7087 26.6326 30.7087 27.2007V30.5131C30.7087 31.0816 31.1696 31.5421 31.7366 31.5421H35.0486C35.6163 31.5421 36.0768 31.0816 36.0768 30.5131V27.2007Z" fill="#E5F7FD"/>
<path d="M31.7366 26.495C31.3472 26.495 31.0313 26.8113 31.0313 27.2007V30.5131C31.0313 30.9025 31.3472 31.2192 31.7366 31.2192H35.0486C35.438 31.2192 35.754 30.9025 35.754 30.5131V27.2007C35.754 26.8113 35.438 26.495 35.0486 26.495H31.7366ZM35.0486 31.8642H31.7366C30.9928 31.8642 30.3859 31.2584 30.3859 30.5131V27.2007C30.3859 26.4558 30.9928 25.8499 31.7366 25.8499H35.0486C35.7932 25.8499 36.3986 26.4558 36.3986 27.2007V30.5131C36.3986 31.2584 35.7932 31.8642 35.0486 31.8642Z" fill="#0082F5"/>
<path d="M19.4179 26.4608C19.4179 25.2953 18.4742 24.3508 17.3098 24.3508H10.516C9.35088 24.3508 8.4068 25.2953 8.4068 26.4608V33.2577C8.4068 34.4235 9.35088 35.368 10.516 35.368H17.3098C18.4742 35.368 19.4179 34.4235 19.4179 33.2577V26.4608Z" fill="#E5F7FD"/>
<path d="M10.516 24.6733C9.53076 24.6733 8.72891 25.4752 8.72891 26.4608V33.2577C8.72891 34.2433 9.53076 35.0459 10.516 35.0459H17.3098C18.2939 35.0459 19.0953 34.2433 19.0953 33.2577V26.4608C19.0953 25.4752 18.2939 24.6733 17.3098 24.6733H10.516ZM17.3098 35.6901H10.516C9.17558 35.6901 8.08466 34.5988 8.08466 33.2577V26.4608C8.08466 25.1192 9.17558 24.0287 10.516 24.0287H17.3098C18.6502 24.0287 19.7404 25.1192 19.7404 26.4608V33.2577C19.7404 34.5988 18.6502 35.6901 17.3098 35.6901Z" fill="#0082F5"/>
<path d="M19.4179 24.7529C19.4179 23.5878 18.4742 22.6433 17.3098 22.6433H10.516C9.35088 22.6433 8.4068 23.5878 8.4068 24.7529V31.5506C8.4068 32.7161 9.35088 33.6601 10.516 33.6601H17.3098C18.4742 33.6601 19.4179 32.7161 19.4179 31.5506V24.7529Z" fill="#E5F7FD"/>
<path d="M10.516 22.9662C9.53076 22.9662 8.72891 23.768 8.72891 24.7529V31.5505C8.72891 32.5361 9.53076 33.3372 10.516 33.3372H17.3098C18.2939 33.3372 19.0953 32.5361 19.0953 31.5505V24.7529C19.0953 23.768 18.2939 22.9662 17.3098 22.9662H10.516ZM17.3098 33.9822H10.516C9.17558 33.9822 8.08466 32.8913 8.08466 31.5505V24.7529C8.08466 23.4117 9.17558 22.3212 10.516 22.3212H17.3098C18.6502 22.3212 19.7404 23.4117 19.7404 24.7529V31.5505C19.7404 32.8913 18.6502 33.9822 17.3098 33.9822Z" fill="#0082F5"/>
<path d="M18.1239 25.5521C18.1239 24.6599 17.4028 23.9384 16.5114 23.9384H11.3143C10.4233 23.9384 9.70178 24.6599 9.70178 25.5521V30.7518C9.70178 31.6432 10.4233 32.3659 11.3143 32.3659H16.5114C17.4028 32.3659 18.1239 31.6432 18.1239 30.7518V25.5521Z" fill="#E5F7FD"/>
<path d="M11.3143 24.2605C10.6024 24.2605 10.0243 24.8401 10.0243 25.552V30.7518C10.0243 31.4633 10.6024 32.043 11.3143 32.043H16.5114C17.2229 32.043 17.8022 31.4633 17.8022 30.7518V25.552C17.8022 24.8401 17.2229 24.2605 16.5114 24.2605H11.3143ZM16.5114 32.6884H11.3143C10.2472 32.6884 9.37927 31.8189 9.37927 30.7518V25.552C9.37927 24.4846 10.2472 23.6147 11.3143 23.6147H16.5114C17.5781 23.6147 18.4468 24.4846 18.4468 25.552V30.7518C18.4468 31.8189 17.5781 32.6884 16.5114 32.6884Z" fill="#0082F5"/>
<path d="M10.6859 9.34277V30.1429C10.6859 30.826 11.2402 31.3795 11.9225 31.3795H15.9033C16.5852 31.3795 17.1383 30.826 17.1383 30.1429V9.34277H10.6859Z" fill="#E5F7FD"/>
<path d="M11.0083 9.66565V30.1429C11.0083 30.6468 11.4181 31.0566 11.9224 31.0566H15.9033C16.4072 31.0566 16.8162 30.6468 16.8162 30.1429V9.66565H11.0083ZM15.9033 31.7016H11.9224C11.0625 31.7016 10.3637 31.0028 10.3637 30.1429V9.02063H17.4608V30.1429C17.4608 31.0028 16.762 31.7016 15.9033 31.7016Z" fill="#0082F5"/>
<path d="M17.1383 5.81672C17.1383 5.13442 16.5852 4.58127 15.9033 4.58127H11.9225C11.2402 4.58127 10.6859 5.13442 10.6859 5.81672V9.80023C10.6859 10.4829 11.2402 11.0361 11.9225 11.0361H15.9033C16.5852 11.0361 17.1383 10.4829 17.1383 9.80023V5.81672Z" fill="#E5F7FD"/>
<path d="M11.9224 4.90338C11.4181 4.90338 11.0083 5.31315 11.0083 5.81671V9.80022C11.0083 10.3042 11.4181 10.7132 11.9224 10.7132H15.9033C16.4072 10.7132 16.8162 10.3042 16.8162 9.80022V5.81671C16.8162 5.31315 16.4072 4.90338 15.9033 4.90338H11.9224ZM15.9033 11.3589H11.9224C11.0625 11.3589 10.3637 10.6593 10.3637 9.80022V5.81671C10.3637 4.9572 11.0625 4.25836 11.9224 4.25836H15.9033C16.762 4.25836 17.4608 4.9572 17.4608 5.81671V9.80022C17.4608 10.6593 16.762 11.3589 15.9033 11.3589Z" fill="#0082F5"/>
<path d="M19.6246 9.25938C19.6246 8.05045 18.6452 7.07062 17.437 7.07062H10.3879C9.18016 7.07062 8.19995 8.05045 8.19995 9.25938V16.3115C8.19995 17.5205 9.18016 18.5011 10.3879 18.5011H17.437C18.6452 18.5011 19.6246 17.5205 19.6246 16.3115V9.25938Z" fill="#0082F5"/>
<path d="M10.388 7.39311C9.35855 7.39311 8.52287 8.23033 8.52287 9.25936V16.3115C8.52287 17.3405 9.35855 18.1782 10.388 18.1782H17.437C18.4661 18.1782 19.3021 17.3405 19.3021 16.3115V9.25936C19.3021 8.23033 18.4661 7.39311 17.437 7.39311H10.388ZM17.437 18.8232H10.388C9.00337 18.8232 7.87823 17.6965 7.87823 16.3115V9.25936C7.87823 7.87476 9.00337 6.74771 10.388 6.74771H17.437C18.8205 6.74771 19.9472 7.87476 19.9472 9.25936V16.3115C19.9472 17.6965 18.8205 18.8232 17.437 18.8232Z" fill="#0082F5"/>
<path d="M19.6246 2.51049C19.6246 1.30156 18.6452 0.322113 17.437 0.322113H10.3879C9.18016 0.322113 8.19995 1.30156 8.19995 2.51049V9.56226C8.19995 10.7723 9.18016 11.7522 10.3879 11.7522H17.437C18.6452 11.7522 19.6246 10.7723 19.6246 9.56226V2.51049Z" fill="#E5F7FD"/>
<path d="M10.388 0.645019C9.35855 0.645019 8.52287 1.48224 8.52287 2.5105V9.56227C8.52287 10.5917 9.35855 11.4293 10.388 11.4293H17.437C18.4661 11.4293 19.3021 10.5917 19.3021 9.56227V2.5105C19.3021 1.48224 18.4661 0.645019 17.437 0.645019H10.388ZM17.437 12.0743H10.388C9.00337 12.0743 7.87823 10.9476 7.87823 9.56227V2.5105C7.87823 1.1259 9.00337 0 10.388 0H17.437C18.8205 0 19.9472 1.1259 19.9472 2.5105V9.56227C19.9472 10.9476 18.8205 12.0743 17.437 12.0743Z" fill="#0082F5"/>
</svg>
